<?xml version="1.0" encoding="utf-8"?>
<!-- Generator: Adobe Illustrator 21.0.0, SVG Export Plug-In . SVG Version: 6.00 Build 0)  -->
<svg version="1.1" xmlns="http://www.w3.org/2000/svg" xmlns:xlink="http://www.w3.org/1999/xlink" x="0px" y="0px"
	 viewBox="0 0 480 480" style="enable-background:new 0 0 480 480;" xml:space="preserve">
<style type="text/css">
	.st0{display:none;}
	.st1{display:inline;}
	.st2{fill:#FFFFFF;stroke:#8EB4E3;stroke-width:25;stroke-miterlimit:10;}
	.st3{fill:#FFFFFF;stroke:#558ED5;stroke-width:25;stroke-miterlimit:10;}
	.st4{font-family:'MalgunGothicBold';}
	.st5{font-size:72.6264px;}
	.st6{fill:#002060;}
	.st7{font-family:'MalgunGothic';}
	.st8{font-size:82.5264px;}
	.st9{fill:#5070B0;}
	.st10{fill:#FFFFFF;stroke:#86A7D0;stroke-width:1.8446;stroke-miterlimit:10;}
	.st11{fill:#86A7D0;stroke:#86A7D0;stroke-width:1.911;stroke-miterlimit:10;}
	.st12{fill:#FFFFFF;}
	.st13{font-family:'GyeonggiTitleM';}
	.st14{font-size:34.3875px;}
	.st15{fill:#517EB8;}
	.st16{font-family:'GyeonggiTitleB';}
</style>
<g id="레이어_2" class="st0">
	<rect class="st1" width="480" height="480"/>
</g>
<g id="레이어_1">
	<polygon class="st2" points="397.3,59.5 397.3,368.9 88,368.9 88,406 434.5,406 434.5,59.5 	"/>
	<rect x="50.8" y="22.4" class="st3" width="346.5" height="346.5"/>
	<g>
		<text transform="matrix(1 0 0 1 290.7678 268.0103)" class="st4 st5">TF</text>
		<text transform="matrix(1 0 0 1 290.7678 268.0103)" class="st4 st5">TF</text>
	</g>
	<g>
		<g>
			<text transform="matrix(1 0 0 1 74.1011 199.3914)" class="st6 st7 st8">SEJONG</text>
			<text transform="matrix(1 0 0 1 74.1011 199.3914)" class="st9 st7 st8">SEJONG</text>
		</g>
		<g>
			<text transform="matrix(1 0 0 1 72.1011 197.3914)" class="st6 st7 st8">SEJONG</text>
			<text transform="matrix(1 0 0 1 72.1011 197.3914)" class="st6 st7 st8">SEJONG</text>
		</g>
	</g>
	<g>
		<rect x="241.9" y="425.4" class="st10" width="204.4" height="45.8"/>
		<rect x="39.3" y="425.4" class="st11" width="202.6" height="45.8"/>
		<text transform="matrix(1 0 0 1 50.2109 459.4102)" class="st12 st13 st14">Powered by</text>
		<text transform="matrix(1 0 0 1 247.1289 459.4141)" class="st15 st16 st14">Technology</text>
	</g>
</g>
</svg>
